<?xml version="1.0" encoding="UTF-8" standalone="no"?><svg xmlns="http://www.w3.org/2000/svg" xmlns:xlink="http://www.w3.org/1999/xlink" contentStyleType="text/css" height="1304px" preserveAspectRatio="none" style="width:1029px;height:1304px;background:#FFFFFF;" version="1.1" viewBox="0 0 1029 1304" width="1029px" zoomAndPan="magnify"><defs/><g><!--MD5=[478a98e12c7e0698243b3e19dc627b4c]
cluster ServerStart--><g id="cluster_ServerStart"><path d="M490.25,308.68 L603.25,308.68 A12.5,12.5 0 0 1 615.75,321.18 L615.75,335.1683 L477.75,335.1683 L477.75,321.18 A12.5,12.5 0 0 1 490.25,308.68 " fill="#F1F1F1" style="stroke:#F1F1F1;stroke-width:1.0;"/><rect fill="none" height="462.68" rx="12.5" ry="12.5" style="stroke:#181818;stroke-width:0.5;" width="138" x="477.75" y="308.68"/><line style="stroke:#181818;stroke-width:0.5;" x1="477.75" x2="615.75" y1="335.1683" y2="335.1683"/><text fill="#000000" font-family="sans-serif" font-size="14" lengthAdjust="spacing" textLength="75" x="509.25" y="326.2152">ServerStart</text></g><ellipse cx="550.75" cy="361.68" fill="#222222" rx="10" ry="10" style="stroke:none;stroke-width:1.0;"/><g id="ServerStart.Listening"><rect fill="#F1F1F1" height="50" rx="12.5" ry="12.5" style="stroke:#181818;stroke-width:0.5;" width="82" x="509.75" y="697.36"/><line style="stroke:#181818;stroke-width:0.5;" x1="509.75" x2="591.75" y1="723.8483" y2="723.8483"/><text fill="#000000" font-family="sans-serif" font-size="14" lengthAdjust="spacing" textLength="62" x="519.75" y="715.8952">Listening</text></g><ellipse cx="248.75" cy="16" fill="#222222" rx="10" ry="10" style="stroke:none;stroke-width:1.0;"/><path d="M107.25,964.35 L266.25,964.35 A12.5,12.5 0 0 1 278.75,976.85 L278.75,990.8383 L94.75,990.8383 L94.75,976.85 A12.5,12.5 0 0 1 107.25,964.35 " fill="#F1F1F1" style="stroke:#F1F1F1;stroke-width:1.0;"/><rect fill="none" height="212.4683" rx="12.5" ry="12.5" style="stroke:#181818;stroke-width:0.5;" width="184" x="94.75" y="964.35"/><line style="stroke:#181818;stroke-width:0.5;" x1="94.75" x2="278.75" y1="990.8383" y2="990.8383"/><text fill="#000000" font-family="sans-serif" font-size="14" lengthAdjust="spacing" textLength="99" x="137.25" y="982.8852">ServeOverview</text><ellipse cx="188.25" cy="1011.8383" fill="#222222" rx="10" ry="10" style="stroke:none;stroke-width:1.0;"/><g id="ServeOverview.ServingOverview"><rect fill="#F1F1F1" height="52.9766" rx="12.5" ry="12.5" style="stroke:#181818;stroke-width:0.5;" width="163" x="106.75" y="1057.8383"/><line style="stroke:#181818;stroke-width:0.5;" x1="106.75" x2="269.75" y1="1084.3266" y2="1084.3266"/><text fill="#000000" font-family="sans-serif" font-size="14" lengthAdjust="spacing" textLength="113" x="131.75" y="1076.3734">ServingOverview</text><text fill="#000000" font-family="sans-serif" font-size="14" lengthAdjust="spacing" textLength="143" x="111.75" y="1102.8617">show a overview text</text></g><ellipse cx="188.25" cy="1156.8183" fill="none" rx="10" ry="10" style="stroke:#222222;stroke-width:1.0;"/><ellipse cx="188.75" cy="1157.3183" fill="#222222" rx="6" ry="6" style="stroke:none;stroke-width:1.0;"/><!--MD5=[b9e6ab7ae6e6001e7c455d2872fb271e]
link *start*ServeOverview to ServingOverview--><g id="link_*start*ServeOverview_ServingOverview"><path d="M188.25,1022.0583 C188.25,1029.4783 188.25,1040.3683 188.25,1050.9183 " fill="none" id="*start*ServeOverview-to-ServingOverview" style="stroke:#181818;stroke-width:1.0;"/><polygon fill="#181818" points="188.25,1055.8983,192.25,1046.8983,188.25,1050.8983,184.25,1046.8983,188.25,1055.8983" style="stroke:#181818;stroke-width:1.0;"/></g><!--MD5=[2ddac5e7cc447564da8d3d3ef1606477]
link ServingOverview to *end*ServeOverview--><g id="link_ServingOverview_*end*ServeOverview"><path d="M188.25,1111.1783 C188.25,1120.9783 188.25,1131.8183 188.25,1140.3583 " fill="none" id="ServingOverview-to-*end*ServeOverview" style="stroke:#181818;stroke-width:1.0;"/><polygon fill="#181818" points="188.25,1145.1483,192.25,1136.1483,188.25,1140.1483,184.25,1136.1483,188.25,1145.1483" style="stroke:#181818;stroke-width:1.0;"/></g><path d="M326.25,964.35 L467.25,964.35 A12.5,12.5 0 0 1 479.75,976.85 L479.75,990.8383 L313.75,990.8383 L313.75,976.85 A12.5,12.5 0 0 1 326.25,964.35 " fill="#F1F1F1" style="stroke:#F1F1F1;stroke-width:1.0;"/><rect fill="none" height="212.4683" rx="12.5" ry="12.5" style="stroke:#181818;stroke-width:0.5;" width="166" x="313.75" y="964.35"/><line style="stroke:#181818;stroke-width:0.5;" x1="313.75" x2="479.75" y1="990.8383" y2="990.8383"/><text fill="#000000" font-family="sans-serif" font-size="14" lengthAdjust="spacing" textLength="90" x="351.75" y="982.8852">ServeProduct</text><ellipse cx="398.25" cy="1011.8383" fill="#222222" rx="10" ry="10" style="stroke:none;stroke-width:1.0;"/><g id="ServeProduct.ServingProduct"><rect fill="#F1F1F1" height="52.9766" rx="12.5" ry="12.5" style="stroke:#181818;stroke-width:0.5;" width="145" x="325.75" y="1057.8383"/><line style="stroke:#181818;stroke-width:0.5;" x1="325.75" x2="470.75" y1="1084.3266" y2="1084.3266"/><text fill="#000000" font-family="sans-serif" font-size="14" lengthAdjust="spacing" textLength="104" x="346.25" y="1076.3734">ServingProduct</text><text fill="#000000" font-family="sans-serif" font-size="14" lengthAdjust="spacing" textLength="125" x="330.75" y="1102.8617">show product text</text></g><ellipse cx="398.25" cy="1156.8183" fill="none" rx="10" ry="10" style="stroke:#222222;stroke-width:1.0;"/><ellipse cx="398.75" cy="1157.3183" fill="#222222" rx="6" ry="6" style="stroke:none;stroke-width:1.0;"/><!--MD5=[78bb3a83c13b52ad9c7c08f948d89305]
link *start*ServeProduct to ServingProduct--><g id="link_*start*ServeProduct_ServingProduct"><path d="M398.25,1022.0583 C398.25,1029.4783 398.25,1040.3683 398.25,1050.9183 " fill="none" id="*start*ServeProduct-to-ServingProduct" style="stroke:#181818;stroke-width:1.0;"/><polygon fill="#181818" points="398.25,1055.8983,402.25,1046.8983,398.25,1050.8983,394.25,1046.8983,398.25,1055.8983" style="stroke:#181818;stroke-width:1.0;"/></g><!--MD5=[a673afc20078d06fba8980ddb9a5a2d6]
link ServingProduct to *end*ServeProduct--><g id="link_ServingProduct_*end*ServeProduct"><path d="M398.25,1111.1783 C398.25,1120.9783 398.25,1131.8183 398.25,1140.3583 " fill="none" id="ServingProduct-to-*end*ServeProduct" style="stroke:#181818;stroke-width:1.0;"/><polygon fill="#181818" points="398.25,1145.1483,402.25,1136.1483,398.25,1140.1483,394.25,1136.1483,398.25,1145.1483" style="stroke:#181818;stroke-width:1.0;"/></g><path d="M527,842.36 L822.5,842.36 A12.5,12.5 0 0 1 835,854.86 L835,868.8483 L514.5,868.8483 L514.5,854.86 A12.5,12.5 0 0 1 527,842.36 " fill="#F1F1F1" style="stroke:#F1F1F1;stroke-width:1.0;"/><rect fill="none" height="456.4383" rx="12.5" ry="12.5" style="stroke:#181818;stroke-width:0.5;" width="320.5" x="514.5" y="842.36"/><line style="stroke:#181818;stroke-width:0.5;" x1="514.5" x2="835" y1="868.8483" y2="868.8483"/><text fill="#000000" font-family="sans-serif" font-size="14" lengthAdjust="spacing" textLength="128" x="610.75" y="860.8952">CalculateFibonacci</text><ellipse cx="709" cy="889.8483" fill="#222222" rx="10" ry="10" style="stroke:none;stroke-width:1.0;"/><g id="CalculateFibonacci.CheckQuery"><rect fill="#F1F1F1" height="52.9766" rx="12.5" ry="12.5" style="stroke:#181818;stroke-width:0.5;" width="196" x="611" y="936.8483"/><line style="stroke:#181818;stroke-width:0.5;" x1="611" x2="807" y1="963.3366" y2="963.3366"/><text fill="#000000" font-family="sans-serif" font-size="14" lengthAdjust="spacing" textLength="83" x="667.5" y="955.3834">CheckQuery</text><text fill="#000000" font-family="sans-serif" font-size="14" lengthAdjust="spacing" textLength="176" x="616" y="981.8717">Query number is present?</text></g><g id="CalculateFibonacci.Calculate"><rect fill="#F1F1F1" height="52.9766" rx="12.5" ry="12.5" style="stroke:#181818;stroke-width:0.5;" width="225" x="526.5" y="1042.8183"/><line style="stroke:#181818;stroke-width:0.5;" x1="526.5" x2="751.5" y1="1069.3066" y2="1069.3066"/><text fill="#000000" font-family="sans-serif" font-size="14" lengthAdjust="spacing" textLength="63" x="607.5" y="1061.3534">Calculate</text><text fill="#000000" font-family="sans-serif" font-size="14" lengthAdjust="spacing" textLength="205" x="531.5" y="1087.8417">Perform Fibonacci Calculation</text></g><g id="CalculateFibonacci.SendStaticPage"><rect fill="#F1F1F1" height="50" rx="12.5" ry="12.5" style="stroke:#181818;stroke-width:0.5;" width="124" x="702" y="1113.7983"/><line style="stroke:#181818;stroke-width:0.5;" x1="702" x2="826" y1="1140.2866" y2="1140.2866"/><text fill="#000000" font-family="sans-serif" font-size="14" lengthAdjust="spacing" textLength="104" x="712" y="1132.3334">SendStaticPage</text></g><g id="CalculateFibonacci.SendResult"><rect fill="#F1F1F1" height="50" rx="12.5" ry="12.5" style="stroke:#181818;stroke-width:0.5;" width="96" x="623" y="1181.7983"/><line style="stroke:#181818;stroke-width:0.5;" x1="623" x2="719" y1="1208.2866" y2="1208.2866"/><text fill="#000000" font-family="sans-serif" font-size="14" lengthAdjust="spacing" textLength="76" x="633" y="1200.3334">SendResult</text></g><ellipse cx="713" cy="1278.7983" fill="none" rx="10" ry="10" style="stroke:#222222;stroke-width:1.0;"/><ellipse cx="713.5" cy="1279.2983" fill="#222222" rx="6" ry="6" style="stroke:none;stroke-width:1.0;"/><!--MD5=[fd1b1b07540ecbb30a8865b3970d7025]
link *start*CalculateFibonacci to CheckQuery--><g id="link_*start*CalculateFibonacci_CheckQuery"><path d="M709,900.1883 C709,907.8483 709,919.1583 709,930.0283 " fill="none" id="*start*CalculateFibonacci-to-CheckQuery" style="stroke:#181818;stroke-width:1.0;"/><polygon fill="#181818" points="709,934.8483,713,925.8483,709,929.8483,705,925.8483,709,934.8483" style="stroke:#181818;stroke-width:1.0;"/></g><!--MD5=[2701a08ac6de3188b8b8862ac095ac7a]
link CheckQuery to Calculate--><g id="link_CheckQuery_Calculate"><path d="M691.52,990.2983 C681.92,1004.5483 669.96,1022.3183 659.88,1037.2883 " fill="none" id="CheckQuery-to-Calculate" style="stroke:#181818;stroke-width:1.0;"/><polygon fill="#181818" points="657.11,1041.4183,665.4637,1036.2015,659.9098,1037.2757,658.8356,1031.7218,657.11,1041.4183" style="stroke:#181818;stroke-width:1.0;"/><text fill="#000000" font-family="sans-serif" font-size="13" lengthAdjust="spacing" textLength="22" x="680" y="1021.3866">Yes</text></g><!--MD5=[a6e465f6a00f32389ed700f6b1686383]
link CheckQuery to SendStaticPage--><g id="link_CheckQuery_SendStaticPage"><path d="M730.8,990.1083 C741.71,1004.6083 753.87,1023.6283 760,1042.8183 C766.63,1063.5883 767.49,1088.1983 766.76,1107.1683 " fill="none" id="CheckQuery-to-SendStaticPage" style="stroke:#181818;stroke-width:1.0;"/><polygon fill="#181818" points="766.53,1111.8583,770.9619,1103.0629,766.7726,1106.8642,762.9713,1102.6748,766.53,1111.8583" style="stroke:#181818;stroke-width:1.0;"/><text fill="#000000" font-family="sans-serif" font-size="13" lengthAdjust="spacing" textLength="18" x="754" y="1021.3866">No</text></g><!--MD5=[26a2374e194230a1379bfb93468a18d4]
link Calculate to SendResult--><g id="link_Calculate_SendResult"><path d="M645.09,1096.1083 C650.42,1118.6683 658.16,1151.4483 663.8,1175.2883 " fill="none" id="Calculate-to-SendResult" style="stroke:#181818;stroke-width:1.0;"/><polygon fill="#181818" points="664.9,1179.9883,666.7386,1170.3126,663.758,1175.1204,658.9501,1172.1398,664.9,1179.9883" style="stroke:#181818;stroke-width:1.0;"/></g><!--MD5=[cd3bb7bb09080dc7d13229bfc98898ed]
link SendResult to *end*CalculateFibonacci--><g id="link_SendResult_*end*CalculateFibonacci"><path d="M685.69,1232.2783 C692.13,1243.0183 699.45,1255.2083 704.89,1264.2783 " fill="none" id="SendResult-to-*end*CalculateFibonacci" style="stroke:#181818;stroke-width:1.0;"/><polygon fill="#181818" points="707.38,1268.4283,706.1795,1258.6529,704.8075,1264.1408,699.3196,1262.7688,707.38,1268.4283" style="stroke:#181818;stroke-width:1.0;"/></g><!--MD5=[75128a86f501bfc68e48aa30569a77a2]
link SendStaticPage to *end*CalculateFibonacci--><g id="link_SendStaticPage_*end*CalculateFibonacci"><path d="M755,1164.1483 C744.44,1192.7283 727.26,1239.1983 718.51,1262.8883 " fill="none" id="SendStaticPage-to-*end*CalculateFibonacci" style="stroke:#181818;stroke-width:1.0;"/><polygon fill="#181818" points="716.8,1267.5183,723.6607,1260.4521,718.5259,1262.8256,716.1524,1257.6907,716.8,1267.5183" style="stroke:#181818;stroke-width:1.0;"/></g><path d="M882.25,964.35 L1003.25,964.35 A12.5,12.5 0 0 1 1015.75,976.85 L1015.75,990.8383 L869.75,990.8383 L869.75,976.85 A12.5,12.5 0 0 1 882.25,964.35 " fill="#F1F1F1" style="stroke:#F1F1F1;stroke-width:1.0;"/><rect fill="none" height="212.4683" rx="12.5" ry="12.5" style="stroke:#181818;stroke-width:0.5;" width="146" x="869.75" y="964.35"/><line style="stroke:#181818;stroke-width:0.5;" x1="869.75" x2="1015.75" y1="990.8383" y2="990.8383"/><text fill="#000000" font-family="sans-serif" font-size="14" lengthAdjust="spacing" textLength="64" x="910.75" y="982.8852">Serve404</text><ellipse cx="944.25" cy="1011.8383" fill="#222222" rx="10" ry="10" style="stroke:none;stroke-width:1.0;"/><g id="Serve404.Serving404"><rect fill="#F1F1F1" height="52.9766" rx="12.5" ry="12.5" style="stroke:#181818;stroke-width:0.5;" width="125" x="881.75" y="1057.8383"/><line style="stroke:#181818;stroke-width:0.5;" x1="881.75" x2="1006.75" y1="1084.3266" y2="1084.3266"/><text fill="#000000" font-family="sans-serif" font-size="14" lengthAdjust="spacing" textLength="78" x="905.25" y="1076.3734">Serving404</text><text fill="#000000" font-family="sans-serif" font-size="14" lengthAdjust="spacing" textLength="105" x="886.75" y="1102.8617">Page not found</text></g><ellipse cx="944.25" cy="1156.8183" fill="none" rx="10" ry="10" style="stroke:#222222;stroke-width:1.0;"/><ellipse cx="944.75" cy="1157.3183" fill="#222222" rx="6" ry="6" style="stroke:none;stroke-width:1.0;"/><!--MD5=[33b894277a69d10be6ba86bcc5010194]
link *start*Serve404 to Serving404--><g id="link_*start*Serve404_Serving404"><path d="M944.25,1022.0583 C944.25,1029.4783 944.25,1040.3683 944.25,1050.9183 " fill="none" id="*start*Serve404-to-Serving404" style="stroke:#181818;stroke-width:1.0;"/><polygon fill="#181818" points="944.25,1055.8983,948.25,1046.8983,944.25,1050.8983,940.25,1046.8983,944.25,1055.8983" style="stroke:#181818;stroke-width:1.0;"/></g><!--MD5=[e0c8c20c6d0cf88d82ba41b56d6f1a3d]
link Serving404 to *end*Serve404--><g id="link_Serving404_*end*Serve404"><path d="M944.25,1111.1783 C944.25,1120.9783 944.25,1131.8183 944.25,1140.3583 " fill="none" id="Serving404-to-*end*Serve404" style="stroke:#181818;stroke-width:1.0;"/><polygon fill="#181818" points="944.25,1145.1483,948.25,1136.1483,944.25,1140.1483,940.25,1136.1483,944.25,1145.1483" style="stroke:#181818;stroke-width:1.0;"/></g><path d="M19.5,87 L438,87 A12.5,12.5 0 0 1 450.5,99.5 L450.5,113.4883 L7,113.4883 L7,99.5 A12.5,12.5 0 0 1 19.5,87 " fill="#F1F1F1" style="stroke:#F1F1F1;stroke-width:1.0;"/><rect fill="none" height="549.3648" rx="12.5" ry="12.5" style="stroke:#181818;stroke-width:0.5;" width="443.5" x="7" y="87"/><line style="stroke:#181818;stroke-width:0.5;" x1="7" x2="450.5" y1="113.4883" y2="113.4883"/><text fill="#000000" font-family="sans-serif" font-size="14" lengthAdjust="spacing" textLength="72" x="192.75" y="105.5352">ClientStart</text><ellipse cx="248.5" cy="134.4883" fill="#222222" rx="10" ry="10" style="stroke:none;stroke-width:1.0;"/><g id="ClientStart.Idle"><rect fill="#F1F1F1" height="52.9766" rx="12.5" ry="12.5" style="stroke:#181818;stroke-width:0.5;" width="160" x="168.5" y="181.4883"/><line style="stroke:#181818;stroke-width:0.5;" x1="168.5" x2="328.5" y1="207.9766" y2="207.9766"/><text fill="#000000" font-family="sans-serif" font-size="14" lengthAdjust="spacing" textLength="25" x="236" y="200.0234">Idle</text><text fill="#000000" font-family="sans-serif" font-size="14" lengthAdjust="spacing" textLength="140" x="173.5" y="226.5117">User is viewing page</text></g><g id="ClientStart.WaitForInput"><rect fill="#F1F1F1" height="52.9766" rx="12.5" ry="12.5" style="stroke:#181818;stroke-width:0.5;" width="156" x="170.5" y="271.4583"/><line style="stroke:#181818;stroke-width:0.5;" x1="170.5" x2="326.5" y1="297.9466" y2="297.9466"/><text fill="#000000" font-family="sans-serif" font-size="14" lengthAdjust="spacing" textLength="88" x="204.5" y="289.9934">WaitForInput</text><text fill="#000000" font-family="sans-serif" font-size="14" lengthAdjust="spacing" textLength="136" x="175.5" y="316.4817">User inputs number</text></g><g id="ClientStart.SendRequest"><rect fill="#F1F1F1" height="52.9766" rx="12.5" ry="12.5" style="stroke:#181818;stroke-width:0.5;" width="211" x="143" y="377.4383"/><line style="stroke:#181818;stroke-width:0.5;" x1="143" x2="354" y1="403.9266" y2="403.9266"/><text fill="#000000" font-family="sans-serif" font-size="14" lengthAdjust="spacing" textLength="89" x="204" y="395.9734">SendRequest</text><text fill="#000000" font-family="sans-serif" font-size="14" lengthAdjust="spacing" textLength="191" x="148" y="422.4617">Send AJAX request to server</text></g><g id="ClientStart.WaitForResponse"><rect fill="#F1F1F1" height="52.9766" rx="12.5" ry="12.5" style="stroke:#181818;stroke-width:0.5;" width="208" x="144.5" y="467.4183"/><line style="stroke:#181818;stroke-width:0.5;" x1="144.5" x2="352.5" y1="493.9066" y2="493.9066"/><text fill="#000000" font-family="sans-serif" font-size="14" lengthAdjust="spacing" textLength="118" x="189.5" y="485.9534">WaitForResponse</text><text fill="#000000" font-family="sans-serif" font-size="14" lengthAdjust="spacing" textLength="188" x="149.5" y="512.4417">Waiting for server response</text></g><g id="ClientStart.DisplayResult"><rect fill="#F1F1F1" height="52.9766" rx="12.5" ry="12.5" style="stroke:#181818;stroke-width:0.5;" width="181" x="19" y="573.3883"/><line style="stroke:#181818;stroke-width:0.5;" x1="19" x2="200" y1="599.8766" y2="599.8766"/><text fill="#000000" font-family="sans-serif" font-size="14" lengthAdjust="spacing" textLength="91" x="64" y="591.9234">DisplayResult</text><text fill="#000000" font-family="sans-serif" font-size="14" lengthAdjust="spacing" textLength="161" x="24" y="618.4117">Display Fibonacci result</text></g><g id="ClientStart.DisplayError"><rect fill="#F1F1F1" height="52.9766" rx="12.5" ry="12.5" style="stroke:#181818;stroke-width:0.5;" width="172" x="269.5" y="573.3883"/><line style="stroke:#181818;stroke-width:0.5;" x1="269.5" x2="441.5" y1="599.8766" y2="599.8766"/><text fill="#000000" font-family="sans-serif" font-size="14" lengthAdjust="spacing" textLength="84" x="313.5" y="591.9234">DisplayError</text><text fill="#000000" font-family="sans-serif" font-size="14" lengthAdjust="spacing" textLength="152" x="274.5" y="618.4117">Display error message</text></g><!--MD5=[437d2604a8980153ab06270c58ff99e1]
link *start*ClientStart to Idle--><g id="link_*start*ClientStart_Idle"><path d="M248.5,144.8283 C248.5,152.4883 248.5,163.7983 248.5,174.6683 " fill="none" id="*start*ClientStart-to-Idle" style="stroke:#181818;stroke-width:1.0;"/><polygon fill="#181818" points="248.5,179.4883,252.5,170.4883,248.5,174.4883,244.5,170.4883,248.5,179.4883" style="stroke:#181818;stroke-width:1.0;"/></g><!--MD5=[8321b600965da932e656c2a3a00695d6]
link Idle to WaitForInput--><g id="link_Idle_WaitForInput"><path d="M248.5,234.8983 C248.5,244.2883 248.5,255.0183 248.5,264.8783 " fill="none" id="Idle-to-WaitForInput" style="stroke:#181818;stroke-width:1.0;"/><polygon fill="#181818" points="248.5,269.6983,252.5,260.6983,248.5,264.6983,244.5,260.6983,248.5,269.6983" style="stroke:#181818;stroke-width:1.0;"/></g><!--MD5=[132f8201cd362779fa9c46d47dbdfad3]
link WaitForInput to SendRequest--><g id="link_WaitForInput_SendRequest"><path d="M248.5,324.9183 C248.5,338.9183 248.5,356.3083 248.5,371.1183 " fill="none" id="WaitForInput-to-SendRequest" style="stroke:#181818;stroke-width:1.0;"/><polygon fill="#181818" points="248.5,375.7783,252.5,366.7783,248.5,370.7783,244.5,366.7783,248.5,375.7783" style="stroke:#181818;stroke-width:1.0;"/><text fill="#000000" font-family="sans-serif" font-size="13" lengthAdjust="spacing" textLength="77" x="249.5" y="356.0066">Button Click</text></g><!--MD5=[15cd910d13208b1e84ea52d387dc37f1]
link SendRequest to WaitForResponse--><g id="link_SendRequest_WaitForResponse"><path d="M248.5,430.8483 C248.5,440.2483 248.5,450.9683 248.5,460.8383 " fill="none" id="SendRequest-to-WaitForResponse" style="stroke:#181818;stroke-width:1.0;"/><polygon fill="#181818" points="248.5,465.6583,252.5,456.6583,248.5,460.6583,244.5,456.6583,248.5,465.6583" style="stroke:#181818;stroke-width:1.0;"/></g><!--MD5=[735a8eb18f5a3f40332a871d6a1c5551]
link WaitForResponse to DisplayResult--><g id="link_WaitForResponse_DisplayResult"><path d="M160.92,520.8583 C152.05,525.7683 143.68,531.5583 136.5,538.3883 C128.35,546.1483 122.49,556.8083 118.35,567.0183 " fill="none" id="WaitForResponse-to-DisplayResult" style="stroke:#181818;stroke-width:1.0;"/><polygon fill="#181818" points="116.65,571.5383,123.5812,564.5413,118.4228,566.8631,116.101,561.7047,116.65,571.5383" style="stroke:#181818;stroke-width:1.0;"/><text fill="#000000" font-family="sans-serif" font-size="13" lengthAdjust="spacing" textLength="119" x="137.5" y="551.9566">Response Received</text></g><!--MD5=[7d4ca0b007642d3950edf160696c77b3]
link WaitForResponse to DisplayError--><g id="link_WaitForResponse_DisplayError"><path d="M253.83,520.6583 C257.29,532.3283 262.83,545.6683 271.5,555.3883 C276.1,560.5483 281.46,565.1883 287.21,569.3483 " fill="none" id="WaitForResponse-to-DisplayError" style="stroke:#181818;stroke-width:1.0;"/><polygon fill="#181818" points="291.33,572.1683,286.1464,563.7939,287.1986,569.352,281.6404,570.4042,291.33,572.1683" style="stroke:#181818;stroke-width:1.0;"/><text fill="#000000" font-family="sans-serif" font-size="13" lengthAdjust="spacing" textLength="119" x="272.5" y="551.9566">Error/No Response</text></g><!--MD5=[ec7b46cee32ff848ec0bb5eec9e13c24]
link DisplayResult to Idle--><g id="link_DisplayResult_Idle"><path d="M103.27,572.9883 C98.78,552.0483 93.5,521.7483 93.5,494.9083 C93.5,296.9483 93.5,296.9483 93.5,296.9483 C93.5,260.2383 126.8,238.6583 162.53,226.0683 " fill="none" id="DisplayResult-to-Idle" style="stroke:#181818;stroke-width:1.0;"/><polygon fill="#181818" points="166.84,224.6083,157.0311,223.7215,162.1067,226.2193,159.6088,231.2948,166.84,224.6083" style="stroke:#181818;stroke-width:1.0;"/></g><!--MD5=[4a397f01150fc91a53dd321330f71737]
link DisplayError to Idle--><g id="link_DisplayError_Idle"><path d="M380.77,573.1883 C385.2,567.6483 389.38,561.5883 392.5,555.3883 C404.9,530.7383 406.5,522.4983 406.5,494.9083 C406.5,296.9483 406.5,296.9483 406.5,296.9483 C406.5,259.2483 371.74,237.5583 334.83,225.1583 " fill="none" id="DisplayError-to-Idle" style="stroke:#181818;stroke-width:1.0;"/><polygon fill="#181818" points="330.33,223.7083,337.657,230.2897,335.0861,225.2508,340.125,222.6799,330.33,223.7083" style="stroke:#181818;stroke-width:1.0;"/></g><!--MD5=[d5b24e1d95db3dba0024df68a5c186ba]
link *start to ServerStart--><g id="link_*start_ServerStart"><path d="M259.23,16.61 C295.25,15.94 414.65,19.07 467.75,87 C486.225,110.63 490.875,177.2975 490.8325,238.9138 C490.8219,254.3178 490.518,269.4062 490.0635,283.4274 C489.8362,290.4381 489.5713,297.1819 489.2866,303.5651 C489.2155,305.1609 489.143,306.7341 489.0697,308.2834 " fill="none" id="*start-to-ServerStart" style="stroke:#181818;stroke-width:1.0;"/><polygon fill="#181818" points="489.0697,308.2834,493.491,299.4827,489.3062,303.289,485.4999,299.1042,489.0697,308.2834" style="stroke:#181818;stroke-width:1.0;"/></g><!--MD5=[8e30befc5bfce06d099fb8f5e9d7e7a0]
link *start to ClientStart--><g id="link_*start_ClientStart"><path d="M248.22,26.19 C247.59,36.92 246.46,56.32 245.05,80.57 " fill="none" id="*start-to-ClientStart" style="stroke:#181818;stroke-width:1.0;"/><polygon fill="#181818" points="244.77,85.33,249.2784,76.5736,245.0561,80.3382,241.2915,76.1159,244.77,85.33" style="stroke:#181818;stroke-width:1.0;"/></g><!--MD5=[5e43b7e5b4358e324b5cf77b5df04cf8]
link *start*ServerStart to Listening--><g id="link_*start*ServerStart_Listening"><path d="M550.75,371.91 C550.75,416.91 550.75,614.35 550.75,690.89 " fill="none" id="*start*ServerStart-to-Listening" style="stroke:#181818;stroke-width:1.0;"/><polygon fill="#181818" points="550.75,695.54,554.75,686.54,550.75,690.54,546.75,686.54,550.75,695.54" style="stroke:#181818;stroke-width:1.0;"/></g><!--MD5=[7f0e63f0b5f5e74bde1a4315d8f9b907]
link Listening to ServeOverview--><g id="link_Listening_ServeOverview"><path d="M509.67,732.8 C454.36,747.46 355.95,780.63 295.75,842.36 C264.16,874.75 240.3,918.05 223.09,958.16 " fill="none" id="Listening-to-ServeOverview" style="stroke:#181818;stroke-width:1.0;"/><polygon fill="#181818" points="221.19,962.66,228.3691,955.9175,223.1303,958.0518,220.996,952.8131,221.19,962.66" style="stroke:#181818;stroke-width:1.0;"/><text fill="#000000" font-family="sans-serif" font-size="13" lengthAdjust="spacing" textLength="90" x="357.75" y="808.9284">/ or /overview</text></g><!--MD5=[328459f253711d873a9c7cbbf6b370ec]
link ServeOverview to Listening--><g id="link_ServeOverview_Listening"><path d="M215.97,964.07 C237.63,905.49 273.23,836.37 328.75,795.36 C381.15,756.66 455.3,738.17 503.21,729.77 " fill="none" id="ServeOverview-to-Listening" style="stroke:#181818;stroke-width:1.0;"/><polygon fill="#181818" points="508.01,728.95,498.4645,726.5243,503.0815,729.7928,499.8131,734.4099,508.01,728.95" style="stroke:#181818;stroke-width:1.0;"/></g><!--MD5=[e37c43dffababbd7c80ddb5d76fc692d]
link Listening to ServeProduct--><g id="link_Listening_ServeProduct"><path d="M536.35,747.66 C528.41,761.45 518.6,779.14 510.75,795.36 C485.29,847.98 460.03,907.78 439.77,958.08 " fill="none" id="Listening-to-ServeProduct" style="stroke:#181818;stroke-width:1.0;"/><polygon fill="#181818" points="438.02,962.45,445.0837,955.5868,439.8819,957.8096,437.6591,952.6078,438.02,962.45" style="stroke:#181818;stroke-width:1.0;"/><text fill="#000000" font-family="sans-serif" font-size="13" lengthAdjust="spacing" textLength="56" x="511.75" y="808.9284">/product</text></g><!--MD5=[fc44edb1470e78a137a37efef392ee98]
link ServeProduct to Listening--><g id="link_ServeProduct_Listening"><path d="M426.47,964.12 C443.29,911.74 466.78,848.46 495.75,795.36 C503.93,780.37 515.07,765.14 525.18,752.57 " fill="none" id="ServeProduct-to-Listening" style="stroke:#181818;stroke-width:1.0;"/><polygon fill="#181818" points="528.19,748.89,519.4022,753.3368,525.03,752.7649,525.602,758.3927,528.19,748.89" style="stroke:#181818;stroke-width:1.0;"/></g><!--MD5=[929fc85fb02c3d9ee6afde6111306bee]
link Listening to CalculateFibonacci--><g id="link_Listening_CalculateFibonacci"><path d="M585.13,747.74 C600.23,760.26 616.77,776.79 626.75,795.36 C633.65,808.22 639.6,821.85 644.71,835.9 " fill="none" id="Listening-to-CalculateFibonacci" style="stroke:#181818;stroke-width:1.0;"/><polygon fill="#181818" points="646.34,840.53,647.1026,830.7107,644.6692,835.8174,639.5625,833.384,646.34,840.53" style="stroke:#181818;stroke-width:1.0;"/><text fill="#000000" font-family="sans-serif" font-size="13" lengthAdjust="spacing" textLength="95" x="633.75" y="808.9284">/fibo?number=</text></g><!--MD5=[8c1a4965b02578dae3bc96807d5ec0f8]
link CalculateFibonacci to Listening--><g id="link_CalculateFibonacci_Listening"><path d="M593.27,842.09 C580.74,807.1 569.39,775.42 561.58,753.59 " fill="none" id="CalculateFibonacci-to-Listening" style="stroke:#181818;stroke-width:1.0;"/><polygon fill="#181818" points="559.98,749.13,559.2533,758.952,561.668,753.8364,566.7836,756.2512,559.98,749.13" style="stroke:#181818;stroke-width:1.0;"/></g><!--MD5=[313004ad20a52e04660efc8f810a9b37]
link Listening to Serve404--><g id="link_Listening_Serve404"><path d="M592.22,727.65 C668.25,736.32 825.76,758.34 864.75,795.36 C908.73,837.12 928.48,901.73 937.11,957.74 " fill="none" id="Listening-to-Serve404" style="stroke:#181818;stroke-width:1.0;"/><polygon fill="#181818" points="937.84,962.68,940.4848,953.1929,937.1109,957.7334,932.5703,954.3595,937.84,962.68" style="stroke:#181818;stroke-width:1.0;"/><text fill="#000000" font-family="sans-serif" font-size="13" lengthAdjust="spacing" textLength="73" x="880.75" y="808.9284">Other Paths</text></g><!--MD5=[f6a7be4db485598f893038c052e79144]
link Serve404 to Listening--><g id="link_Serve404_Listening"><path d="M920.16,963.96 C906.61,921.74 885.42,875.39 852.75,842.36 C782.3,771.14 664.07,741.45 598.39,729.96 " fill="none" id="Serve404-to-Listening" style="stroke:#181818;stroke-width:1.0;"/><polygon fill="#181818" points="593.69,729.15,601.8869,734.6099,598.6185,729.9928,603.2355,726.7243,593.69,729.15" style="stroke:#181818;stroke-width:1.0;"/></g><!--MD5=[a0fe5242398c62dc0fc2511ccc0c5850]
@startuml
[*] - -> ServerStart
[*] - -> ClientStart

state ServerStart {
    [*] - -> Listening
    Listening - -> ServeOverview : / or /overview
    Listening - -> ServeProduct : /product
    Listening - -> CalculateFibonacci : /fibo?number=
    Listening - -> Serve404 : Other Paths
    ServeOverview - -> Listening
    ServeProduct - -> Listening
    CalculateFibonacci - -> Listening
    Serve404 - -> Listening
}

state ServeOverview {
    [*] - -> ServingOverview
    ServingOverview : show a overview text
    ServingOverview - -> [*]
}

state ServeProduct {
    [*] - -> ServingProduct
    ServingProduct: show product text
    ServingProduct - -> [*]
}

state CalculateFibonacci {
    [*] - -> CheckQuery
    CheckQuery : Query number is present?
    CheckQuery - -> Calculate : Yes
    CheckQuery - -> SendStaticPage : No
    Calculate : Perform Fibonacci Calculation
    Calculate - -> SendResult
    SendResult - -> [*]
    SendStaticPage - -> [*]
}

state Serve404 {
    [*] - -> Serving404
    Serving404: Page not found
    Serving404 - -> [*]
}

state ClientStart {
    [*] - -> Idle
    Idle - -> WaitForInput
    WaitForInput - -> SendRequest : Button Click
    SendRequest - -> WaitForResponse
    WaitForResponse - -> DisplayResult : Response Received
    WaitForResponse - -> DisplayError : Error/No Response
    DisplayResult - -> Idle
    DisplayError - -> Idle
}

Idle : User is viewing page
WaitForInput : User inputs number
SendRequest : Send AJAX request to server
WaitForResponse : Waiting for server response
DisplayResult : Display Fibonacci result
DisplayError : Display error message

@enduml

PlantUML version 1.2022.7(Tue Aug 23 00:01:30 ICT 2022)
(GPL source distribution)
Java Runtime: OpenJDK Runtime Environment
JVM: OpenJDK 64-Bit Server VM
Default Encoding: UTF-8
Language: en
Country: VN
--></g></svg>